<?xml version="1.0" encoding="UTF-8" standalone="no"?><!DOCTYPE svg PUBLIC "-//W3C//DTD SVG 1.1//EN" "http://www.w3.org/Graphics/SVG/1.1/DTD/svg11.dtd"><svg width="100%" height="100%" viewBox="0 0 178 146" version="1.1" xmlns="http://www.w3.org/2000/svg" xmlns:xlink="http://www.w3.org/1999/xlink" xml:space="preserve" xmlns:serif="http://www.serif.com/" style="fill-rule:evenodd;clip-rule:evenodd;stroke-linejoin:round;stroke-miterlimit:2;"><g><path d="M166.58,132.656c-1.46,1.456 -3.436,2.342 -5.656,2.344c-2.582,-0.002 -4.846,-1.212 -6.33,-3.126c-1.042,-1.35 -2.818,-1.89 -4.434,-1.352c-1.472,0.494 -35.366,6.488 -59.238,6.478c-13.738,0.002 -28.826,-1.382 -40.434,-2.774c-5.806,-0.696 -22.244,-3.096 -23.326,-3.386c-1.504,-0.406 -3.112,0.1 -4.11,1.292c-1.484,1.762 -3.658,2.866 -6.13,2.868c-2.222,-0.002 -4.198,-0.888 -5.656,-2.344c-1.454,-1.46 -2.342,-3.436 -2.344,-5.656c0.002,-2.326 0.984,-4.382 2.582,-5.868c1.14,-1.056 1.568,-2.698 1.088,-4.176c-0.404,-1.24 -0.858,-4.136 -0.936,-4.784c-0.546,-4.5 -2.74,-23.768 -2.734,-39.172c-0.002,-8.792 0.71,-18.876 1.428,-26.718c0.358,-3.922 1.838,-15.998 2.242,-17.238c0.48,-1.478 0.052,-3.12 -1.088,-4.176c-1.596,-1.488 -2.58,-3.542 -2.582,-5.868c0.002,-2.222 0.888,-4.198 2.344,-5.656c1.458,-1.456 3.434,-2.342 5.656,-2.344c2.472,0.002 4.646,1.106 6.13,2.868c0.998,1.194 2.606,1.7 4.11,1.292c1.082,-0.292 17.57,-2.708 28.312,-3.906c10.734,-1.2 23.21,-2.256 33.448,-2.254c11.702,-0.002 25.898,1.37 37.102,2.752c5.606,0.69 10.47,1.38 13.928,1.896c1.73,0.26 8.736,1.336 10.208,1.826c1.616,0.542 3.392,0 4.434,-1.35c1.484,-1.912 3.748,-3.124 6.33,-3.126c2.22,0.002 4.196,0.888 5.656,2.344c1.456,1.46 2.342,3.436 2.344,5.656c-0.002,2.592 -1.226,4.866 -3.154,6.35c-1.344,1.028 -1.892,2.776 -1.38,4.386c0.33,1.042 0.768,3.44 0.768,3.44c0.206,1.24 1.154,7.09 2.066,14.696c0.912,7.6 1.786,16.974 1.852,25.162c0,0 0.004,0.624 0.004,0.928c0.002,8.626 -0.982,18.45 -1.976,26.06c-0.496,3.808 -2.382,15.202 -2.712,16.24c-0.512,1.614 0.038,3.362 1.38,4.388c1.928,1.484 3.152,3.758 3.154,6.35c-0.006,2.222 -0.892,4.198 -2.346,5.658Z" style="fill:#2e6aa4;fill-rule:nonzero;stroke:#2e6aa4;stroke-width:1px;"/><path d="M172.988,114.458l0.004,0c0.01,-0.048 1.026,-5.592 2.042,-13.404c1.016,-7.816 2.042,-17.88 2.042,-27.094c0,-0.338 -0.004,-0.994 -0.004,-0.994c-0.08,-9.266 -1.1,-19.554 -2.096,-27.578c-0.994,-8.02 -2.18,-14.994 -2.308,-15.578c2.62,-2.842 4.256,-6.632 4.254,-10.81c-0.002,-8.838 -7.162,-15.998 -16,-16c-4.144,-0.002 -7.914,1.61 -10.75,4.196c-1.112,-0.262 -2.244,-0.46 -3.408,-0.57c0,0 -8.382,-1.412 -19.762,-2.814c-11.388,-1.4 -25.782,-2.81 -38.08,-2.812c-12.298,0.004 -27.092,1.422 -38.884,2.83c-11.786,1.41 -21.972,2.972 -22.658,3.094c-2.802,-2.43 -6.458,-3.926 -10.458,-3.924c-8.838,0.002 -15.998,7.162 -16,16c-0.002,3.722 1.302,7.148 3.438,9.86c-0.224,0.968 -3.432,25.752 -3.438,44.14c0.006,18.388 2.914,41.082 2.92,41.168c0,0 0.292,2.004 0.518,2.97c-2.134,2.714 -3.44,6.14 -3.438,9.862c0.002,8.838 7.162,15.998 16,16c3.998,0.002 7.654,-1.494 10.458,-3.924c0.674,0.12 10.36,1.682 22.158,3.094c11.8,1.41 27.124,2.828 41.384,2.83c13.282,-0.002 27.208,-1.412 37.864,-2.816c10.65,-1.404 20.304,-3.126 21.386,-3.378c2.836,2.586 6.606,4.198 10.75,4.196c8.838,-0.004 15.998,-7.162 16,-16c0.002,-4.178 -1.634,-7.968 -4.254,-10.81c0.126,-0.57 0.236,-1.148 0.32,-1.734Zm-6.408,18.198c-1.46,1.456 -3.436,2.342 -5.656,2.344c-2.582,-0.002 -4.846,-1.212 -6.33,-3.126c-1.042,-1.35 -2.818,-1.89 -4.434,-1.352c-1.472,0.494 -35.366,6.488 -59.238,6.478c-13.738,0.002 -28.826,-1.382 -40.434,-2.774c-5.806,-0.696 -22.244,-3.096 -23.326,-3.386c-1.504,-0.406 -3.112,0.1 -4.11,1.292c-1.484,1.762 -3.658,2.866 -6.13,2.868c-2.222,-0.002 -4.198,-0.888 -5.656,-2.344c-1.454,-1.46 -2.342,-3.436 -2.344,-5.656c0.002,-2.326 0.984,-4.382 2.582,-5.868c1.14,-1.056 1.568,-2.698 1.088,-4.176c-0.404,-1.24 -0.858,-4.136 -0.936,-4.784c-0.546,-4.5 -2.74,-23.768 -2.734,-39.172c-0.002,-8.792 0.71,-18.876 1.428,-26.718c0.358,-3.922 1.838,-15.998 2.242,-17.238c0.48,-1.478 0.052,-3.12 -1.088,-4.176c-1.596,-1.488 -2.58,-3.542 -2.582,-5.868c0.002,-2.222 0.888,-4.198 2.344,-5.656c1.458,-1.456 3.434,-2.342 5.656,-2.344c2.472,0.002 4.646,1.106 6.13,2.868c0.998,1.194 2.606,1.7 4.11,1.292c1.082,-0.292 17.57,-2.708 28.312,-3.906c10.734,-1.2 23.21,-2.256 33.448,-2.254c11.702,-0.002 25.898,1.37 37.102,2.752c5.606,0.69 10.47,1.38 13.928,1.896c1.73,0.26 8.736,1.336 10.208,1.826c1.616,0.542 3.392,0 4.434,-1.35c1.484,-1.912 3.748,-3.124 6.33,-3.126c2.22,0.002 4.196,0.888 5.656,2.344c1.456,1.46 2.342,3.436 2.344,5.656c-0.002,2.592 -1.226,4.866 -3.154,6.35c-1.344,1.028 -1.892,2.776 -1.38,4.386c0.33,1.042 0.768,3.44 0.768,3.44c0.206,1.24 1.154,7.09 2.066,14.696c0.912,7.6 1.786,16.974 1.852,25.162c0,0 0.004,0.624 0.004,0.928c0.002,8.626 -0.982,18.45 -1.976,26.06c-0.496,3.808 -2.382,15.202 -2.712,16.24c-0.512,1.614 0.038,3.362 1.38,4.388c1.928,1.484 3.152,3.758 3.154,6.35c-0.006,2.222 -0.892,4.198 -2.346,5.658Z" style="fill:#51a7f9;fill-rule:nonzero;"/><path d="M27.43,51.832c0.078,-0.692 0.258,-2.188 0.258,-2.188c0.174,-1.372 -0.794,-2.622 -2.164,-2.796c-1.37,-0.174 -2.622,0.794 -2.794,2.164c-0.004,0.052 -1.698,13.268 -1.702,23.988c0.004,10.72 1.698,23.934 1.702,23.986c0.174,1.37 1.426,2.338 2.794,2.164c1.37,-0.176 2.34,-1.428 2.164,-2.796c0,0 -0.026,-0.196 -0.07,-0.57c-0.318,-2.618 -1.594,-13.83 -1.59,-22.784c0,-5.11 0.414,-10.974 0.83,-15.54c0.21,-2.28 0.416,-4.242 0.572,-5.628Z" style="fill:#51a7f9;fill-rule:nonzero;"/><path d="M154.17,94.756c-1.574,-0.518 -3.268,0.34 -3.786,1.914c-2.41,7.352 -7.512,13.506 -14.134,17.282c-1.44,0.82 -1.942,2.652 -1.12,4.092c0.82,1.44 2.652,1.942 4.092,1.12c7.904,-4.506 13.978,-11.832 16.864,-20.622c0.516,-1.576 -0.34,-3.27 -1.916,-3.786Z" style="fill:#51a7f9;fill-rule:nonzero;"/><text x="46.789px" y="81.748px" style="font-family:'Avenir-Black', 'Avenir', sans-serif;font-weight:800;font-size:36px;fill:#fff;">Cosy</text></g></svg>